<svg width="24" height="24" viewBox="0 0 24 24" fill="none" xmlns="http://www.w3.org/2000/svg">
    <symbol id="icon-cart" viewBox="0 0 24 24">
        <path d="M1 2H4L7 13M7 13L6 17H21M7 13H19L22 4H4.545L7 13ZM7 21C7 21.2652 6.89464 21.5196 6.70711 21.7071C6.51957 21.8946 6.26522 22 6 22C5.73478 22 5.48043 21.8946 5.29289 21.7071C5.10536 21.5196 5 21.2652 5 21C5 20.7348 5.10536 20.4804 5.29289 20.2929C5.48043 20.1054 5.73478 20 6 20C6.26522 20 6.51957 20.1054 6.70711 20.2929C6.89464 20.4804 7 20.7348 7 21ZM21 21C21 21.2652 20.8946 21.5196 20.7071 21.7071C20.5196 21.8946 20.2652 22 20 22C19.7348 22 19.4804 21.8946 19.2929 21.7071C19.1054 21.5196 19 21.2652 19 21C19 20.7348 19.1054 20.4804 19.2929 20.2929C19.4804 20.1054 19.7348 20 20 20C20.2652 20 20.5196 20.1054 20.7071 20.2929C20.8946 20.4804 21 20.7348 21 21Z" stroke="currentColor" stroke-width="2" stroke-linecap="square"/>
    </symbol>

    <symbol id="icon-instagram" viewBox="0 0 24 24">
        <path d="M3 11C3 7.229 3 5.343 4.172 4.172C5.344 3.001 7.229 3 11 3H13C16.771 3 18.657 3 19.828 4.172C20.999 5.344 21 7.229 21 11V13C21 16.771 21 18.657 19.828 19.828C18.656 20.999 16.771 21 13 21H11C7.229 21 5.343 21 4.172 19.828C3.001 18.656 3 16.771 3 13V11Z" stroke="currentColor" stroke-width="2"/>
        <path d="M16.5 9C17.3284 9 18 8.32843 18 7.5C18 6.67157 17.3284 6 16.5 6C15.6716 6 15 6.67157 15 7.5C15 8.32843 15.6716 9 16.5 9Z" fill="currentColor"/>
        <path d="M12 15C13.6569 15 15 13.6569 15 12C15 10.3431 13.6569 9 12 9C10.3431 9 9 10.3431 9 12C9 13.6569 10.3431 15 12 15Z" stroke="currentColor" stroke-width="2"/>
    </symbol>

    <symbol id="icon-linkedin" viewBox="0 0 24 24">
        <path fill-rule="evenodd" clip-rule="evenodd" d="M5 1.25C4.27065 1.25 3.57118 1.53973 3.05546 2.05546C2.53973 2.57118 2.25 3.27065 2.25 4C2.25 4.72935 2.53973 5.42882 3.05546 5.94454C3.57118 6.46027 4.27065 6.75 5 6.75C5.72935 6.75 6.42882 6.46027 6.94454 5.94454C7.46027 5.42882 7.75 4.72935 7.75 4C7.75 3.27065 7.46027 2.57118 6.94454 2.05546C6.42882 1.53973 5.72935 1.25 5 1.25ZM3.75 4C3.75 3.66848 3.8817 3.35054 4.11612 3.11612C4.35054 2.8817 4.66848 2.75 5 2.75C5.33152 2.75 5.64946 2.8817 5.88388 3.11612C6.1183 3.35054 6.25 3.66848 6.25 4C6.25 4.33152 6.1183 4.64946 5.88388 4.88388C5.64946 5.1183 5.33152 5.25 5 5.25C4.66848 5.25 4.35054 5.1183 4.11612 4.88388C3.8817 4.64946 3.75 4.33152 3.75 4ZM2.25 8C2.25 7.80109 2.32902 7.61032 2.46967 7.46967C2.61032 7.32902 2.80109 7.25 3 7.25H7C7.19891 7.25 7.38968 7.32902 7.53033 7.46967C7.67098 7.61032 7.75 7.80109 7.75 8V21C7.75 21.1989 7.67098 21.3897 7.53033 21.5303C7.38968 21.671 7.19891 21.75 7 21.75H3C2.80109 21.75 2.61032 21.671 2.46967 21.5303C2.32902 21.3897 2.25 21.1989 2.25 21V8ZM3.75 8.75V20.25H6.25V8.75H3.75ZM9.25 8C9.25 7.80109 9.32902 7.61032 9.46967 7.46967C9.61032 7.32902 9.80109 7.25 10 7.25H14C14.1989 7.25 14.3897 7.32902 14.5303 7.46967C14.671 7.61032 14.75 7.80109 14.75 8V8.434L15.185 8.247C15.9351 7.9266 16.7307 7.72583 17.543 7.652C20.318 7.4 22.75 9.58 22.75 12.38V21C22.75 21.1989 22.671 21.3897 22.5303 21.5303C22.3897 21.671 22.1989 21.75 22 21.75H18C17.8011 21.75 17.6103 21.671 17.4697 21.5303C17.329 21.3897 17.25 21.1989 17.25 21V14C17.25 13.6685 17.1183 13.3505 16.8839 13.1161C16.6495 12.8817 16.3315 12.75 16 12.75C15.6685 12.75 15.3505 12.8817 15.1161 13.1161C14.8817 13.3505 14.75 13.6685 14.75 14V21C14.75 21.1989 14.671 21.3897 14.5303 21.5303C14.3897 21.671 14.1989 21.75 14 21.75H10C9.80109 21.75 9.61032 21.671 9.46967 21.5303C9.32902 21.3897 9.25 21.1989 9.25 21V8ZM10.75 8.75V20.25H13.25V14C13.25 13.2707 13.5397 12.5712 14.0555 12.0555C14.5712 11.5397 15.2707 11.25 16 11.25C16.7293 11.25 17.4288 11.5397 17.9445 12.0555C18.4603 12.5712 18.75 13.2707 18.75 14V20.25H21.25V12.38C21.25 10.476 19.589 8.972 17.68 9.146C17.0241 9.2055 16.3817 9.36747 15.776 9.626L14.296 10.261C14.1818 10.31 14.0573 10.3299 13.9336 10.3189C13.8098 10.3079 13.6907 10.2663 13.587 10.1979C13.4833 10.1295 13.3982 10.0364 13.3394 9.927C13.2806 9.81757 13.2499 9.69524 13.25 9.571V8.75H10.75Z" fill="currentColor"/>
    </symbol>

    <symbol id="icon-facebook" viewBox="0 0 24 24">
        <path fill-rule="evenodd" clip-rule="evenodd" d="M10.488 3.788C11.4724 2.8034 12.8077 2.25016 14.2 2.25H16.9C17.0989 2.25 17.2897 2.32902 17.4303 2.46967C17.571 2.61032 17.65 2.80109 17.65 3V6.6C17.65 6.79891 17.571 6.98968 17.4303 7.13033C17.2897 7.27098 17.0989 7.35 16.9 7.35H14.2C14.1803 7.35 14.1608 7.35388 14.1426 7.36142C14.1244 7.36896 14.1079 7.38 14.0939 7.39393C14.08 7.40786 14.069 7.4244 14.0614 7.4426C14.0539 7.4608 14.05 7.4803 14.05 7.5V9.45H16.9C17.014 9.44994 17.1266 9.47587 17.229 9.52583C17.3315 9.57579 17.4213 9.64846 17.4915 9.73832C17.5617 9.82817 17.6104 9.93285 17.6341 10.0444C17.6578 10.1559 17.6557 10.2714 17.628 10.382L16.728 13.982C16.6874 14.1443 16.5937 14.2884 16.4618 14.3913C16.3299 14.4942 16.1673 14.5501 16 14.55H14.05V21C14.05 21.1989 13.971 21.3897 13.8303 21.5303C13.6897 21.671 13.4989 21.75 13.3 21.75H9.7C9.50109 21.75 9.31032 21.671 9.16967 21.5303C9.02902 21.3897 8.95 21.1989 8.95 21V14.55H7C6.80109 14.55 6.61032 14.471 6.46967 14.3303C6.32902 14.1897 6.25 13.9989 6.25 13.8V10.2C6.25 10.1015 6.2694 10.004 6.30709 9.91299C6.34478 9.82199 6.40003 9.73931 6.46967 9.66967C6.53931 9.60003 6.62199 9.54478 6.71299 9.50709C6.80398 9.4694 6.90151 9.45 7 9.45H8.95V7.5C8.95016 6.10768 9.5034 4.77244 10.488 3.788ZM14.2 3.75C13.2054 3.75 12.2516 4.14509 11.5483 4.84835C10.8451 5.55161 10.45 6.50544 10.45 7.5V10.2C10.45 10.3989 10.371 10.5897 10.2303 10.7303C10.0897 10.871 9.89891 10.95 9.7 10.95H7.75V13.05H9.7C9.89891 13.05 10.0897 13.129 10.2303 13.2697C10.371 13.4103 10.45 13.6011 10.45 13.8V20.25H12.55V13.8C12.55 13.6011 12.629 13.4103 12.7697 13.2697C12.9103 13.129 13.1011 13.05 13.3 13.05H15.414L15.939 10.95H13.3C13.1011 10.95 12.9103 10.871 12.7697 10.7303C12.629 10.5897 12.55 10.3989 12.55 10.2V7.5C12.55 7.06239 12.7238 6.64271 13.0333 6.33327C13.3427 6.02384 13.7624 5.85 14.2 5.85H16.15V3.75H14.2Z" fill="currentColor"/>
    </symbol>

    <symbol id="icon-brake" viewBox="0 0 24 24">
        <path d="M12 4C14.1217 4 16.1566 4.84285 17.6569 6.34315C19.1572 7.84344 20 9.87827 20 12C20 14.1217 19.1572 16.1566 17.6569 17.6569C16.1566 19.1571 14.1217 20 12 20C9.87828 20 7.84345 19.1571 6.34316 17.6569C4.84286 16.1566 4.00001 14.1217 4.00001 12C4.00001 9.87827 4.84286 7.84344 6.34316 6.34315C7.84345 4.84285 9.87828 4 12 4ZM3.20001 5.4C3.27721 5.29084 3.37551 5.19826 3.48911 5.12775C3.60271 5.05724 3.72929 5.01022 3.86137 4.98948C3.99346 4.96875 4.12836 4.9747 4.2581 5.00701C4.38784 5.03931 4.50979 5.09731 4.61672 5.17756C4.72366 5.25781 4.81342 5.3587 4.88069 5.47424C4.94796 5.58979 4.99138 5.71765 5.00837 5.85027C5.02537 5.98289 5.0156 6.11757 4.97964 6.24634C4.94367 6.37512 4.88226 6.49537 4.79901 6.6C3.62837 8.15663 2.99682 10.0523 3.00001 12C3.00001 14.027 3.67001 15.895 4.79901 17.4C4.95814 17.6122 5.02647 17.8789 4.98896 18.1414C4.95145 18.404 4.81118 18.6409 4.59901 18.8C4.38684 18.9591 4.12014 19.0275 3.85759 18.99C3.59504 18.9524 3.35814 18.8122 3.19901 18.6C1.76872 16.6972 0.996825 14.3804 1.00001 12C1.00001 9.525 1.81901 7.238 3.20001 5.4ZM19.4 5.2C19.6122 5.04087 19.8789 4.97254 20.1414 5.01005C20.404 5.04756 20.6409 5.18783 20.8 5.4C22.2307 7.3027 23.0029 9.61946 23 12C23 14.475 22.181 16.762 20.8 18.6C20.7228 18.7092 20.6245 18.8017 20.5109 18.8723C20.3973 18.9428 20.2707 18.9898 20.1386 19.0105C20.0066 19.0313 19.8717 19.0253 19.7419 18.993C19.6122 18.9607 19.4902 18.9027 19.3833 18.8224C19.2764 18.7422 19.1866 18.6413 19.1193 18.5258C19.0521 18.4102 19.0086 18.2823 18.9916 18.1497C18.9747 18.0171 18.9844 17.8824 19.0204 17.7537C19.0563 17.6249 19.1178 17.5046 19.201 17.4C20.3717 15.8434 21.0032 13.9477 21 12C21 9.973 20.33 8.105 19.201 6.6C19.0419 6.38783 18.9736 6.12113 19.0111 5.85858C19.0486 5.59603 19.1878 5.35913 19.4 5.2ZM12 6C10.4087 6 8.88259 6.63214 7.75737 7.75736C6.63215 8.88258 6.00001 10.4087 6.00001 12C6.00001 13.5913 6.63215 15.1174 7.75737 16.2426C8.88259 17.3679 10.4087 18 12 18C13.5913 18 15.1174 17.3679 16.2427 16.2426C17.3679 15.1174 18 13.5913 18 12C18 10.4087 17.3679 8.88258 16.2427 7.75736C15.1174 6.63214 13.5913 6 12 6ZM12 14C12.2652 14 12.5196 14.1054 12.7071 14.2929C12.8947 14.4804 13 14.7348 13 15C13 15.2652 12.8947 15.5196 12.7071 15.7071C12.5196 15.8946 12.2652 16 12 16C11.7348 16 11.4804 15.8946 11.2929 15.7071C11.1054 15.5196 11 15.2652 11 15C11 14.7348 11.1054 14.4804 11.2929 14.2929C11.4804 14.1054 11.7348 14 12 14ZM12 8C12.2449 8.00003 12.4813 8.08996 12.6644 8.25272C12.8474 8.41547 12.9644 8.63975 12.993 8.883L13 9V12C12.9997 12.2549 12.9021 12.5 12.7272 12.6854C12.5522 12.8707 12.3131 12.9822 12.0586 12.9972C11.8042 13.0121 11.5536 12.9293 11.3582 12.7657C11.1627 12.6021 11.0371 12.3701 11.007 12.117L11 12V9C11 8.73478 11.1054 8.48043 11.2929 8.29289C11.4804 8.10536 11.7348 8 12 8Z" fill="currentColor"/>
    </symbol>

    <symbol id="icon-suspension" viewBox="0 0 24 24">
        <path d="M12 16C11.2044 16 10.4413 16.3161 9.87868 16.8787C9.31607 17.4413 9 18.2044 9 19C9 19.7956 9.31607 20.5587 9.87868 21.1213C10.4413 21.6839 11.2044 22 12 22C12.7956 22 13.5587 21.6839 14.1213 21.1213C14.6839 20.5587 15 19.7956 15 19C15 18.2044 14.6839 17.4413 14.1213 16.8787C13.5587 16.3161 12.7956 16 12 16ZM12 16V4M9 11L15 10M9 14L15 13M9 8L15 7M13 2H11V4H13V2Z" stroke="currentColor" stroke-width="2" stroke-linecap="round" stroke-linejoin="round"/>
    </symbol>

    <symbol id="icon-light" viewBox="0 0 24 24">
        <path d="M12 16C14.2091 16 16 14.2091 16 12C16 9.79086 14.2091 8 12 8C9.79086 8 8 9.79086 8 12C8 14.2091 9.79086 16 12 16Z" stroke="currentColor" stroke-width="2" stroke-linejoin="round"/>
        <path d="M20 12H21M3 12H4M12 20V21M12 3V4M17.657 17.657L18.364 18.364M5.636 5.636L6.343 6.343M6.343 17.657L5.636 18.364M18.364 5.636L17.657 6.343" stroke="currentColor" stroke-width="2" stroke-linecap="round"/>
    </symbol>

    <symbol id="icon-engine" viewBox="0 0 24 24">
        <path d="M8 10H16V18H11L9 16H7V11M7 4V6H10V8H7L5 10V13H3V10H1V18H3V15H5V18H8L10 20H18V16H20V19H23V9H20V12H18V8H12V6H15V4H7Z" fill="currentColor"/>
    </symbol>

    <symbol id="icon-oil" viewBox="0 0 24 24">
        <path d="M21 11L18 8L13 11L11 9H7M18 8L14 15H3V9H7M7 9V4M7 4H4M7 4H10M3 21L4.5 19.5C4.58 19.42 4.62 19.38 4.655 19.349C5.0231 19.0145 5.50263 18.8292 6 18.8292C6.49737 18.8292 6.9769 19.0145 7.345 19.349C7.381 19.381 7.42 19.42 7.5 19.5L7.649 19.648C7.82638 19.8255 8.03699 19.9663 8.2688 20.0623C8.50061 20.1584 8.74907 20.2079 9 20.2079C9.25093 20.2079 9.49939 20.1584 9.7312 20.0623C9.96301 19.9663 10.1736 19.8255 10.351 19.648L10.725 19.275C10.8796 19.1203 11.0666 19.0019 11.2725 18.9283C11.4784 18.8546 11.6981 18.8276 11.9157 18.8491C12.1334 18.8706 12.3435 18.9402 12.531 19.0527C12.7185 19.1653 12.8787 19.318 13 19.5C13.1213 19.682 13.2815 19.8347 13.469 19.9473C13.6565 20.0598 13.8666 20.1294 14.0843 20.1509C14.3019 20.1724 14.5216 20.1454 14.7275 20.0717C14.9334 19.9981 15.1204 19.8797 15.275 19.725L15.648 19.352C15.8254 19.1742 16.0361 19.0332 16.2681 18.9369C16.5001 18.8407 16.7488 18.7911 17 18.7911C17.2512 18.7911 17.4999 18.8407 17.7319 18.9369C17.9639 19.0332 18.1746 19.1742 18.352 19.352L20 21" stroke="currentColor" stroke-width="2" stroke-linejoin="round"/>
    </symbol>

    <symbol id="icon-electrical" viewBox="0 0 24 24">
        <path d="M17.625 9.89062H12V0.75L6.375 14.1094H12V23.25L17.625 9.89062Z" fill="currentColor"/>
    </symbol>

    <symbol id="icon-tire" viewBox="0 0 24 24">
        <path d="M13.9931 14.9306C14.5397 16.2956 15.3281 16.5 15.75 16.5C16.1719 16.5 16.9603 16.2956 17.5069 14.9306C17.8247 14.1356 18 13.095 18 12C18 10.905 17.8247 9.86437 17.5069 9.06938C16.9603 7.70437 16.1719 7.5 15.75 7.5C15.3281 7.5 14.5397 7.70437 13.9931 9.06938C13.6753 9.86437 13.5 10.905 13.5 12C13.5 13.095 13.6753 14.1356 13.9931 14.9306ZM15.75 9.01875C15.9956 9.21187 16.5 10.2375 16.5 12C16.5 13.7625 15.9956 14.7881 15.75 14.9813C15.5044 14.7881 15 13.7625 15 12C15 10.2375 15.5044 9.21187 15.75 9.01875ZM21.75 20.25H18.4134C19.98 18.5372 21 15.5128 21 12C21 6.5325 18.5297 2.25 15.375 2.25H8.625C5.47031 2.25 3 6.5325 3 12C3 17.4675 5.47031 21.75 8.625 21.75H21.75C21.9489 21.75 22.1397 21.671 22.2803 21.5303C22.421 21.3897 22.5 21.1989 22.5 21C22.5 20.8011 22.421 20.6103 22.2803 20.4697C22.1397 20.329 21.9489 20.25 21.75 20.25ZM18.1631 5.99344C19.0247 7.58531 19.5 9.71906 19.5 12C19.5 14.2809 19.0247 16.4147 18.1631 18.0066C17.3794 19.4531 16.3894 20.25 15.375 20.25C14.3606 20.25 13.3706 19.4531 12.5869 18.0066C11.7253 16.4147 11.25 14.2809 11.25 12C11.25 9.71906 11.7253 7.58531 12.5869 5.99344C13.3706 4.54688 14.3606 3.75 15.375 3.75C16.3894 3.75 17.3794 4.54688 18.1631 5.99344ZM4.5 12C4.5 11.7656 4.50656 11.5312 4.51594 11.3025L7.5 9.17156L9.79031 10.8075C9.76406 11.1975 9.75 11.5959 9.75 12C9.74769 13.0536 9.84405 14.105 10.0378 15.1406L7.93594 13.6406C7.80874 13.5498 7.65632 13.5009 7.5 13.5009C7.34368 13.5009 7.19126 13.5498 7.06406 13.6406L4.83844 15.2344C4.60947 14.1716 4.496 13.0872 4.5 12ZM5.83687 5.99344C6.62062 4.54688 7.61063 3.75 8.625 3.75H12.3366C11.2209 4.96875 10.3828 6.855 9.99281 9.10875L7.93594 7.63969C7.80874 7.54883 7.65632 7.49998 7.5 7.49998C7.34368 7.49998 7.19126 7.54883 7.06406 7.63969L4.73344 9.30469C4.95469 8.0625 5.32781 6.9375 5.83687 5.99344ZM5.83687 18.0066C5.6211 17.6044 5.43498 17.1871 5.28 16.7578L7.5 15.1716L10.6819 17.4441C11.1131 18.5691 11.6756 19.5272 12.3366 20.25H8.625C7.61063 20.25 6.62062 19.4531 5.83687 18.0066Z" fill="currentColor"/>
    </symbol>

    <symbol id="icon-favorite" viewBox="0 0 24 24">
        <path d="M12 20.9999L10.55 19.6999C8.86667 18.1832 7.475 16.8749 6.375 15.7749C5.275 14.6749 4.4 13.6872 3.75 12.8119C3.1 11.9366 2.646 11.1326 2.388 10.3999C2.13 9.66724 2.00067 8.91724 2 8.1499C2 6.58324 2.525 5.2749 3.575 4.2249C4.625 3.1749 5.93333 2.6499 7.5 2.6499C8.36667 2.6499 9.19167 2.83324 9.975 3.1999C10.7583 3.56657 11.4333 4.08324 12 4.7499C12.5667 4.08324 13.2417 3.56657 14.025 3.1999C14.8083 2.83324 15.6333 2.6499 16.5 2.6499C18.0667 2.6499 19.375 3.1749 20.425 4.2249C21.475 5.2749 22 6.58324 22 8.1499C22 8.91657 21.871 9.66657 21.613 10.3999C21.355 11.1332 20.9007 11.9372 20.25 12.8119C19.5993 13.6866 18.7243 14.6742 17.625 15.7749C16.5257 16.8756 15.134 18.1839 13.45 19.6999L12 20.9999ZM12 18.2999C13.6 16.8666 14.9167 15.6376 15.95 14.6129C16.9833 13.5882 17.8 12.6966 18.4 11.9379C19 11.1792 19.4167 10.5039 19.65 9.9119C19.8833 9.3199 20 8.73257 20 8.1499C20 7.1499 19.6667 6.31657 19 5.6499C18.3333 4.98324 17.5 4.6499 16.5 4.6499C15.7167 4.6499 14.9917 4.87057 14.325 5.3119C13.6583 5.75324 13.2 6.3159 12.95 6.9999H11.05C10.8 6.31657 10.3417 5.75424 9.675 5.3129C9.00833 4.87157 8.28333 4.65057 7.5 4.6499C6.5 4.6499 5.66667 4.98324 5 5.6499C4.33333 6.31657 4 7.1499 4 8.1499C4 8.73324 4.11667 9.3209 4.35 9.9129C4.58333 10.5049 5 11.1799 5.6 11.9379C6.2 12.6959 7.01667 13.5876 8.05 14.6129C9.08333 15.6382 10.4 16.8672 12 18.2999Z" fill="currentColor"/>
    </symbol>

    <symbol id="icon-see" viewBox="0 0 24 24">
        <path d="M12 9C12.7956 9 13.5587 9.31607 14.1213 9.87868C14.6839 10.4413 15 11.2044 15 12C15 12.7956 14.6839 13.5587 14.1213 14.1213C13.5587 14.6839 12.7956 15 12 15C11.2044 15 10.4413 14.6839 9.87868 14.1213C9.31607 13.5587 9 12.7956 9 12C9 11.2044 9.31607 10.4413 9.87868 9.87868C10.4413 9.31607 11.2044 9 12 9ZM12 4.5C17 4.5 21.27 7.61 23 12C21.27 16.39 17 19.5 12 19.5C7 19.5 2.73 16.39 1 12C2.73 7.61 7 4.5 12 4.5ZM3.18 12C3.98825 13.6503 5.24331 15.0407 6.80248 16.0133C8.36165 16.9858 10.1624 17.5013 12 17.5013C13.8376 17.5013 15.6383 16.9858 17.1975 16.0133C18.7567 15.0407 20.0117 13.6503 20.82 12C20.0117 10.3497 18.7567 8.95925 17.1975 7.98675C15.6383 7.01424 13.8376 6.49868 12 6.49868C10.1624 6.49868 8.36165 7.01424 6.80248 7.98675C5.24331 8.95925 3.98825 10.3497 3.18 12Z" fill="currentColor"/>
    </symbol>

    <symbol id="icon-search" viewBox="0 0 24 24">
        <path d="M19.6 21L13.3 14.7C12.8 15.1 12.225 15.4167 11.575 15.65C10.925 15.8833 10.2333 16 9.5 16C7.68333 16 6.146 15.3707 4.888 14.112C3.63 12.8533 3.00067 11.316 3 9.5C2.99933 7.684 3.62867 6.14667 4.888 4.888C6.14733 3.62933 7.68467 3 9.5 3C11.3153 3 12.853 3.62933 14.113 4.888C15.373 6.14667 16.002 7.684 16 9.5C16 10.2333 15.8833 10.925 15.65 11.575C15.4167 12.225 15.1 12.8 14.7 13.3L21 19.6L19.6 21ZM9.5 14C10.75 14 11.8127 13.5627 12.688 12.688C13.5633 11.8133 14.0007 10.7507 14 9.5C13.9993 8.24933 13.562 7.187 12.688 6.313C11.814 5.439 10.7513 5.00133 9.5 5C8.24867 4.99867 7.18633 5.43633 6.313 6.313C5.43967 7.18967 5.002 8.252 5 9.5C4.998 10.748 5.43567 11.8107 6.313 12.688C7.19033 13.5653 8.25267 14.0027 9.5 14Z" fill="currentColor"/>
    </symbol>

    <symbol id="icon-checkmark" viewBox="0 0 24 24">
        <path d="M9.5501 18.0001L3.8501 12.3001L5.2751 10.8751L9.5501 15.1501L18.7251 5.9751L20.1501 7.4001L9.5501 18.0001Z" fill="currentColor"/>
    </symbol>

    <symbol id="icon-trash" viewBox="0 0 24 24">
        <path d="M17 6V4C17 2.9 16.1 2 15 2H9C7.9 2 7 2.9 7 4V6H2V8H4V20C4 21.1 4.9 22 6 22H18C19.1 22 20 21.1 20 20V8H22V6H17ZM9 4H15V6H9V4ZM6 20V8H18V20H6Z" fill="currentColor"/>
        <path d="M9 10H11V18H9V10ZM13 10H15V18H13V10Z" fill="currentColor"/>
    </symbol>

    <symbol id="icon-increment" viewBox="0 0 24 24">
        <path d="M19 12.998H13V18.998H11V12.998H5V10.998H11V4.99805H13V10.998H19V12.998Z" fill="currentColor"/>
    </symbol>

    <symbol id="icon-decrement" viewBox="0 0 24 24">
        <path d="M19 12.998H5V10.998H19V12.998Z" fill="currentColor"/>
    </symbol>

    <symbol id="icon-promo" viewBox="0 0 24 24">
        <path d="M6.98584 3.69978C9.78284 6.79478 14.3958 0.115781 17.1258 2.53978C18.6958 3.93378 18.1988 7.01378 16.1608 9.01978" stroke="currentColor" stroke-width="1.5" stroke-linecap="round"/>
        <path d="M13.7898 13.9836C13.8078 13.6486 13.9008 13.0366 13.3928 12.5716C13.1987 12.402 12.9721 12.2738 12.7268 12.1946C11.6788 11.8246 10.3908 13.0616 11.3018 14.1946C11.7918 14.8026 12.1688 14.9896 12.1338 15.6806C12.1088 16.1666 11.6308 16.6746 11.0018 16.8686C10.4548 17.0366 9.8518 16.8136 9.4708 16.3876C9.0048 15.8676 9.0508 15.3766 9.0478 15.1626M13.3928 12.5726L13.9668 11.9976M9.5118 16.4526L8.9668 16.9976" stroke="currentColor" stroke-width="1.5" stroke-linecap="round" stroke-linejoin="round"/>
        <path d="M18.2729 6.63264C19.1979 6.81064 19.4059 7.39464 19.6819 9.01664C19.9309 10.4766 20.0009 12.2296 20.0009 12.9766C19.9756 13.2509 19.8639 13.51 19.6819 13.7166C17.7469 15.7446 13.9059 19.5746 11.9679 21.4766C11.2079 22.1566 10.0599 22.1716 9.25189 21.5476C7.59889 20.0606 6.01089 18.3796 4.45489 16.8626C3.82989 16.0566 3.84489 14.9126 4.52489 14.1536C6.57589 12.0266 10.2869 8.38564 12.3809 6.37364C12.5909 6.19364 12.8489 6.08164 13.1239 6.05664C13.5939 6.05664 14.3999 6.11964 15.1859 6.16464" stroke="currentColor" stroke-width="1.5" stroke-linecap="round"/>
    </symbol>

    <symbol id="icon-shield" viewBox="0 0 24 24">
        <path d="M12 22C9.68333 21.4167 7.77067 20.0873 6.262 18.012C4.75333 15.9367 3.99933 13.6327 4 11.1V5L12 2L20 5V11.1C20 13.6333 19.246 15.9377 17.738 18.013C16.23 20.0883 14.3173 21.4173 12 22ZM12 19.9C13.7333 19.35 15.1667 18.25 16.3 16.6C17.4333 14.95 18 13.1167 18 11.1V6.375L12 4.125L6 6.375V11.1C6 13.1167 6.56667 14.95 7.7 16.6C8.83333 18.25 10.2667 19.35 12 19.9Z" fill="currentColor"/>
    </symbol>

    <symbol id="icon-verified" viewBox="0 0 24 24">
        <path fill-rule="evenodd" clip-rule="evenodd" d="M15.6493 7.95106C15.7872 8.02754 15.9086 8.13043 16.0067 8.25385C16.1047 8.37727 16.1775 8.5188 16.2208 8.67035C16.2642 8.82191 16.2773 8.98052 16.2593 9.13713C16.2413 9.29373 16.1927 9.44526 16.1161 9.58306L12.7825 15.5831C12.706 15.7208 12.603 15.8421 12.4795 15.94C12.3561 16.038 12.2145 16.1106 12.063 16.1539C11.7569 16.2412 11.4287 16.2033 11.1505 16.0487C11.0128 15.9721 10.8915 15.8691 10.7936 15.7456C10.6956 15.6222 10.623 15.4806 10.5797 15.3291C10.4924 15.023 10.5303 14.6948 10.6849 14.4167L14.0173 8.41666C14.0939 8.27893 14.1969 8.15763 14.3203 8.05969C14.4438 7.96175 14.5854 7.88908 14.7369 7.84585C14.8885 7.80261 15.047 7.78965 15.2036 7.8077C15.3601 7.82576 15.5116 7.87447 15.6493 7.95106Z" fill="currentColor"/>
        <path fill-rule="evenodd" clip-rule="evenodd" d="M7.46396 11.5837C7.66279 11.3354 7.95206 11.1762 8.26821 11.1411C8.58436 11.106 8.90151 11.1979 9.14996 11.3965L12.4836 14.0629C12.6066 14.1614 12.7091 14.2832 12.7851 14.4213C12.8611 14.5593 12.9092 14.7111 12.9266 14.8677C12.944 15.0244 12.9303 15.183 12.8864 15.3344C12.8425 15.4858 12.7692 15.627 12.6708 15.7501C12.5723 15.8732 12.4505 15.9756 12.3124 16.0517C12.1743 16.1277 12.0226 16.1757 11.8659 16.1931C11.7093 16.2105 11.5507 16.1969 11.3993 16.153C11.2479 16.1091 11.1066 16.0358 10.9836 15.9373L7.64996 13.2709C7.52684 13.1724 7.42434 13.0507 7.34829 12.9126C7.27225 12.7745 7.22417 12.6228 7.20678 12.4661C7.1894 12.3094 7.20306 12.1508 7.24698 11.9994C7.2909 11.848 7.36542 11.7068 7.46396 11.5837Z" fill="currentColor"/>
        <path fill-rule="evenodd" clip-rule="evenodd" d="M12.564 4.43044C12.4157 4.28314 12.2151 4.20049 12.006 4.20049C11.797 4.20049 11.5964 4.28314 11.448 4.43044C10.3596 5.51764 8.61724 6.18724 7.08484 6.11044C6.97429 6.10386 6.8636 6.12089 6.76015 6.16041C6.6567 6.19993 6.56284 6.26103 6.48484 6.33964C6.40937 6.4145 6.35001 6.504 6.31039 6.60264C6.27077 6.70128 6.25173 6.80697 6.25444 6.91324C6.27124 7.77724 6.05404 8.64004 5.76844 9.34924C5.48284 10.0596 5.04124 10.8312 4.43044 11.4432C4.28314 11.5916 4.20049 11.7922 4.20049 12.0012C4.20049 12.2103 4.28314 12.4109 4.43044 12.5592C5.50204 13.632 6.22324 15.3204 6.25444 16.8384C6.25767 17.042 6.34035 17.2362 6.48484 17.3796C6.62259 17.5188 6.80764 17.601 7.00324 17.61C7.84924 17.652 8.69044 17.9016 9.39484 18.2136C10.1004 18.5268 10.8492 18.9828 11.4468 19.5816C11.5952 19.7289 11.7958 19.8116 12.0048 19.8116C12.2139 19.8116 12.4145 19.7289 12.5628 19.5816C13.1616 18.9828 13.9104 18.5268 14.6148 18.2136C15.3204 17.9016 16.1628 17.652 17.0064 17.61C17.202 17.601 17.3871 17.5188 17.5248 17.3796C17.6698 17.2364 17.7529 17.0422 17.7564 16.8384C17.7876 15.3204 18.5088 13.632 19.5804 12.5592C19.7277 12.4109 19.8104 12.2103 19.8104 12.0012C19.8104 11.7922 19.7277 11.5916 19.5804 11.4432C18.9684 10.8312 18.528 10.0596 18.2424 9.34924C17.9568 8.64004 17.7384 7.77724 17.7564 6.91324C17.759 6.80689 17.7398 6.70114 17.6999 6.6025C17.6601 6.50385 17.6005 6.4144 17.5248 6.33964C17.4471 6.26097 17.3535 6.19974 17.2502 6.16002C17.147 6.12029 17.0365 6.10298 16.926 6.10924C15.3924 6.18724 13.65 5.51764 12.564 4.43044ZM3.85564 6.96004C3.87364 7.87084 3.37804 9.10204 2.73364 9.74524C2.13568 10.3438 1.7998 11.1552 1.7998 12.0012C1.7998 12.8473 2.13568 13.6587 2.73364 14.2572C3.36964 14.8908 3.83764 15.99 3.85564 16.8876C3.87244 17.682 4.18324 18.4716 4.78924 19.0764C5.34833 19.6367 6.09626 19.9683 6.88684 20.0064C7.83604 20.0544 9.07924 20.6064 9.75124 21.2784C10.3497 21.876 11.1609 22.2117 12.0066 22.2117C12.8524 22.2117 13.6636 21.876 14.262 21.2784C14.934 20.6064 16.1772 20.0544 17.1264 20.0064C17.917 19.9683 18.6649 19.6367 19.224 19.0764C19.8063 18.495 20.1406 17.7104 20.1564 16.8876C20.1756 15.99 20.6436 14.8908 21.2784 14.256C21.876 13.6576 22.2117 12.8464 22.2117 12.0006C22.2117 11.1549 21.876 10.3437 21.2784 9.74524C20.6352 9.10204 20.1384 7.87084 20.1576 6.96124C20.1667 6.53177 20.0886 6.10493 19.9282 5.70647C19.7677 5.30801 19.5282 4.94619 19.224 4.64284C18.9088 4.3268 18.5306 4.08067 18.114 3.92044C17.6974 3.76021 17.2518 3.68947 16.806 3.71284C15.9492 3.75604 14.868 3.34084 14.262 2.73364C13.6635 2.13568 12.8521 1.7998 12.006 1.7998C11.16 1.7998 10.3486 2.13568 9.75004 2.73364C9.14524 3.33964 8.06284 3.75604 7.20604 3.71284C6.7605 3.68964 6.31506 3.76046 5.89868 3.92069C5.4823 4.08091 5.1043 4.32696 4.78924 4.64284C4.48525 4.94605 4.24581 5.30767 4.08536 5.70592C3.92491 6.10416 3.84676 6.53078 3.85564 6.96004Z" fill="currentColor"/>
    </symbol>

    <symbol id="icon-target" viewBox="0 0 24 24">
        <path d="M12 2C12.3753 2 12.7453 2.02033 13.11 2.061C13.2405 2.07545 13.3669 2.11546 13.482 2.17876C13.5971 2.24206 13.6986 2.3274 13.7806 2.42992C13.8627 2.53243 13.9238 2.65011 13.9604 2.77624C13.997 2.90237 14.0084 3.03447 13.994 3.165C13.9796 3.29553 13.9395 3.42194 13.8762 3.53701C13.8129 3.65208 13.7276 3.75356 13.6251 3.83565C13.5226 3.91773 13.4049 3.97882 13.2788 4.01543C13.1526 4.05204 13.0205 4.06345 12.89 4.049C11.242 3.86464 9.57752 4.19694 8.12668 4.99992C6.67583 5.80291 5.51035 7.03689 4.79147 8.5312C4.07258 10.0255 3.8358 11.7063 4.11389 13.341C4.39198 14.9758 5.17119 16.4837 6.34374 17.6563C7.51629 18.8288 9.02423 19.608 10.659 19.8861C12.2937 20.1642 13.9745 19.9274 15.4688 19.2085C16.9631 18.4896 18.1971 17.3242 19.0001 15.8733C19.8031 14.4225 20.1354 12.758 19.951 11.11C19.9366 10.9795 19.948 10.8474 19.9846 10.7212C20.0212 10.5951 20.0823 10.4774 20.1644 10.3749C20.3301 10.1679 20.5714 10.0352 20.835 10.006C21.0986 9.97683 21.363 10.0536 21.5701 10.2194C21.6726 10.3014 21.7579 10.4029 21.8212 10.518C21.8845 10.6331 21.9246 10.7595 21.939 10.89C21.979 11.2547 21.9993 11.6247 22 12C22 17.523 17.523 22 12 22C6.477 22 2 17.523 2 12C2 6.477 6.477 2 12 2ZM11.968 7.877C12.0339 8.13372 11.9952 8.40611 11.8604 8.63431C11.7256 8.8625 11.5057 9.02785 11.249 9.094C10.5439 9.27871 9.93004 9.71367 9.52204 10.3177C9.11404 10.9217 8.93975 11.6536 9.0317 12.3767C9.12365 13.0998 9.47555 13.7647 10.0217 14.2474C10.5679 14.7301 11.2711 14.9976 12 15C12.6653 15.0003 13.3118 14.7794 13.8379 14.3721C14.3639 13.9648 14.7397 13.3942 14.906 12.75C14.9769 12.4984 15.1435 12.2845 15.3701 12.1542C15.5968 12.0239 15.8655 11.9875 16.1186 12.0529C16.3717 12.1183 16.5892 12.2802 16.7244 12.5039C16.8596 12.7277 16.9018 12.9955 16.842 13.25C16.5352 14.4259 15.8108 15.45 14.8042 16.1308C13.7975 16.8116 12.5774 17.1026 11.3718 16.9495C10.1662 16.7964 9.05754 16.2096 8.25301 15.2987C7.44848 14.3879 7.00307 13.2153 7 12C6.99983 10.8914 7.3681 9.81416 8.04692 8.93767C8.72573 8.06119 9.67659 7.43515 10.75 7.158C10.8772 7.12522 11.0096 7.11781 11.1396 7.13621C11.2697 7.1546 11.3948 7.19843 11.5079 7.2652C11.621 7.33197 11.7199 7.42036 11.7988 7.52534C11.8778 7.63031 11.9353 7.74981 11.968 7.877ZM18.504 2.127C18.6865 2.20268 18.8425 2.33074 18.9524 2.49501C19.0622 2.65928 19.1209 2.8524 19.121 3.05V4.88H20.95C21.1478 4.88004 21.341 4.93871 21.5055 5.0486C21.6699 5.15848 21.798 5.31465 21.8737 5.49735C21.9493 5.68005 21.9692 5.88108 21.9306 6.07503C21.892 6.26898 21.7968 6.44715 21.657 6.587L18.12 10.12C17.9325 10.3075 17.6782 10.4129 17.413 10.413H15L13.172 12.242C12.9844 12.4296 12.7299 12.5351 12.4645 12.5351C12.1991 12.5351 11.9446 12.4296 11.757 12.242C11.5694 12.0544 11.4639 11.7999 11.4639 11.5345C11.4639 11.2691 11.5694 11.0146 11.757 10.827L13.586 9V6.586C13.5861 6.32081 13.6915 6.06649 13.879 5.879L17.414 2.343C17.5538 2.20307 17.7321 2.10776 17.9261 2.06913C18.1201 2.0305 18.3212 2.0503 18.504 2.126M17.121 5.463L15.586 7V8.414H17L18.536 6.879H18.121C17.8558 6.879 17.6014 6.77364 17.4139 6.58611C17.2264 6.39857 17.121 6.14422 17.121 5.879V5.463Z" fill="currentColor"/>
    </symbol>

    <symbol id="icon-diamond" viewBox="0 0 24 24">
        <path d="M12 21L2 9L5 3H19L22 9L12 21ZM9.625 8H14.375L12.875 5H11.125L9.625 8ZM11 16.675V10H5.45L11 16.675ZM13 16.675L18.55 10H13V16.675ZM16.6 8H19.25L17.75 5H15.1L16.6 8ZM4.75 8H7.4L8.9 5H6.25L4.75 8Z" fill="currentColor"/>
    </symbol>

    <symbol id="icon-mail" viewBox="0 0 24 24">
        <path d="M22 6C22 4.9 21.1 4 20 4H4C2.9 4 2 4.9 2 6V18C2 19.1 2.9 20 4 20H20C21.1 20 22 19.1 22 18V6ZM20 6L12 11L4 6H20ZM20 18H4V8L12 13L20 8V18Z" fill="currentColor"/>
    </symbol>

    <symbol id="icon-tel" viewBox="0 0 24 24">
        <path d="M6.54 5C6.6 5.89 6.75 6.76 6.99 7.59L5.79 8.79C5.38 7.59 5.12 6.32 5.03 5H6.54ZM16.4 17.02C17.25 17.26 18.12 17.41 19 17.47V18.96C17.68 18.87 16.41 18.61 15.2 18.21L16.4 17.02ZM7.5 3H4C3.45 3 3 3.45 3 4C3 13.39 10.61 21 20 21C20.55 21 21 20.55 21 20V16.51C21 15.96 20.55 15.51 20 15.51C18.76 15.51 17.55 15.31 16.43 14.94C16.331 14.903 16.2256 14.886 16.12 14.89C15.86 14.89 15.61 14.99 15.41 15.18L13.21 17.38C10.3755 15.9303 8.06966 13.6245 6.62 10.79L8.82 8.59C9.1 8.31 9.18 7.92 9.07 7.57C8.69132 6.41789 8.4989 5.21274 8.5 4C8.5 3.45 8.05 3 7.5 3Z" fill="currentColor"/>
    </symbol>

    <symbol id="icon-network" viewBox="0 0 24 24">
        <path d="M16.36 14C16.44 13.34 16.5 12.68 16.5 12C16.5 11.32 16.44 10.66 16.36 10H19.74C19.9 10.64 20 11.31 20 12C20 12.69 19.9 13.36 19.74 14M14.59 19.56C15.19 18.45 15.65 17.25 15.97 16H18.92C17.9512 17.6683 16.4141 18.932 14.59 19.56ZM14.34 14H9.66C9.56 13.34 9.5 12.68 9.5 12C9.5 11.32 9.56 10.65 9.66 10H14.34C14.43 10.65 14.5 11.32 14.5 12C14.5 12.68 14.43 13.34 14.34 14ZM12 19.96C11.17 18.76 10.5 17.43 10.09 16H13.91C13.5 17.43 12.83 18.76 12 19.96ZM8 8H5.08C6.03864 6.32703 7.57466 5.06124 9.4 4.44C8.8 5.55 8.35 6.75 8 8ZM5.08 16H8C8.35 17.25 8.8 18.45 9.4 19.56C7.57827 18.9323 6.04429 17.6682 5.08 16ZM4.26 14C4.1 13.36 4 12.69 4 12C4 11.31 4.1 10.64 4.26 10H7.64C7.56 10.66 7.5 11.32 7.5 12C7.5 12.68 7.56 13.34 7.64 14M12 4.03C12.83 5.23 13.5 6.57 13.91 8H10.09C10.5 6.57 11.17 5.23 12 4.03ZM18.92 8H15.97C15.6565 6.76161 15.1931 5.56611 14.59 4.44C16.43 5.07 17.96 6.34 18.92 8ZM12 2C6.47 2 2 6.5 2 12C2 14.6522 3.05357 17.1957 4.92893 19.0711C5.85752 19.9997 6.95991 20.7362 8.17317 21.2388C9.38642 21.7413 10.6868 22 12 22C14.6522 22 17.1957 20.9464 19.0711 19.0711C20.9464 17.1957 22 14.6522 22 12C22 10.6868 21.7413 9.38642 21.2388 8.17317C20.7362 6.95991 19.9997 5.85752 19.0711 4.92893C18.1425 4.00035 17.0401 3.26375 15.8268 2.7612C14.6136 2.25866 13.3132 2 12 2Z" fill="currentColor"/>
    </symbol>

    <symbol id="icon-close" viewBox="0 0 24 24">
        <path d="M6.4 19L5 17.6L10.6 12L5 6.4L6.4 5L12 10.6L17.6 5L19 6.4L13.4 12L19 17.6L17.6 19L12 13.4L6.4 19Z" fill="currentColor"/>
    </symbol>

    <symbol id="icon-home" viewBox="0 0 24 24">
        <path d="M6 19H9V13H15V19H18V10L12 5.5L6 10V19ZM4 21V9L12 3L20 9V21H13V15H11V21H4Z" fill="currentColor"/>
    </symbol>

    <symbol id="icon-about-us" viewBox="0 0 24 24">
        <path d="M14 10H19.5L14 4.5V10ZM5 3H15L21 9V19C21 19.5304 20.7893 20.0391 20.4142 20.4142C20.0391 20.7893 19.5304 21 19 21H5C4.46957 21 3.96086 20.7893 3.58579 20.4142C3.21071 20.0391 3 19.5304 3 19V5C3 3.89 3.89 3 5 3ZM5 5V19H19V12H12V5H5Z" fill="currentColor"/>
    </symbol>

    <symbol id="icon-category" viewBox="0 0 24 24">
        <path d="M2 20V4H10L12 6H22V20H2ZM4 18H20V8H11.175L9.175 6H4V18Z" fill="currentColor"/>
    </symbol>

    <symbol id="icon-contact" viewBox="0 0 24 24">
        <path d="M19 19H5V5H19M19 3H5C4.46957 3 3.96086 3.21071 3.58579 3.58579C3.21071 3.96086 3 4.46957 3 5V19C3 19.5304 3.21071 20.0391 3.58579 20.4142C3.96086 20.7893 4.46957 21 5 21H19C19.5304 21 20.0391 20.7893 20.4142 20.4142C20.7893 20.0391 21 19.5304 21 19V5C21 4.46957 20.7893 3.96086 20.4142 3.58579C20.0391 3.21071 19.5304 3 19 3ZM16.5 16.25C16.5 14.75 13.5 14 12 14C10.5 14 7.5 14.75 7.5 16.25V17H16.5M12 12.25C12.5967 12.25 13.169 12.0129 13.591 11.591C14.0129 11.169 14.25 10.5967 14.25 10C14.25 9.40326 14.0129 8.83097 13.591 8.40901C13.169 7.98705 12.5967 7.75 12 7.75C11.4033 7.75 10.831 7.98705 10.409 8.40901C9.98705 8.83097 9.75 9.40326 9.75 10C9.75 10.5967 9.98705 11.169 10.409 11.591C10.831 12.0129 11.4033 12.25 12 12.25Z" fill="currentColor"/>
    </symbol>

    <symbol id="icon-filter" viewBox="0 0 24 24">
        <path d="M14.9999 19.88C15.0399 20.18 14.9399 20.5 14.7099 20.71C14.6174 20.8027 14.5075 20.8762 14.3865 20.9264C14.2655 20.9766 14.1359 21.0024 14.0049 21.0024C13.8739 21.0024 13.7442 20.9766 13.6233 20.9264C13.5023 20.8762 13.3924 20.8027 13.2999 20.71L9.28989 16.7C9.18088 16.5933 9.098 16.4629 9.04769 16.319C8.99739 16.175 8.98103 16.0213 8.99989 15.87V10.75L4.20989 4.62C4.0475 4.41153 3.97422 4.14726 4.00607 3.88493C4.03793 3.6226 4.17232 3.38355 4.37989 3.22C4.56989 3.08 4.77989 3 4.99989 3H18.9999C19.2199 3 19.4299 3.08 19.6199 3.22C19.8275 3.38355 19.9618 3.6226 19.9937 3.88493C20.0256 4.14726 19.9523 4.41153 19.7899 4.62L14.9999 10.75V19.88ZM7.03989 5L10.9999 10.06V15.58L12.9999 17.58V10.05L16.9599 5H7.03989Z" fill="currentColor"/>
    </symbol>
</svg>