<svg width="211" height="60" viewBox="0 0 211 60" fill="none" xmlns="http://www.w3.org/2000/svg">
<path d="M152.112 36.3496C152.205 36.3496 152.281 36.4254 152.281 36.5186V38.8154C152.281 39.7665 152.912 40.4573 153.435 40.8555C153.498 40.9042 153.56 40.9571 153.62 41.0146C153.799 41.1874 154.035 41.3282 154.31 41.3906V43.8271C154.029 43.8866 153.786 44.0282 153.602 44.2021C153.393 44.399 153.152 44.5529 152.854 44.6543L152.845 44.6572L152.836 44.6602C152.111 44.9252 151.308 44.7693 150.721 44.2939L150.606 44.1943L150.511 44.1123C150.345 43.9823 150.143 43.8777 149.915 43.8281V41.3906C150.19 41.3282 150.426 41.1875 150.605 41.0146C150.665 40.9572 150.726 40.9041 150.79 40.8555C151.312 40.4573 151.943 39.7665 151.943 38.8154V36.5186C151.944 36.4255 152.019 36.3497 152.112 36.3496ZM152.112 40.751C151.619 40.751 151.146 40.9479 150.798 41.2969C150.449 41.6458 150.253 42.1184 150.253 42.6113C150.253 43.1044 150.449 43.5778 150.798 43.9268C151.146 44.2756 151.619 44.4717 152.112 44.4717C152.606 44.4717 153.079 44.2757 153.428 43.9268C153.776 43.5778 153.972 43.1043 153.972 42.6113C153.972 42.1185 153.776 41.6457 153.428 41.2969C153.079 40.9479 152.606 40.751 152.112 40.751ZM148.058 26.1973H156.168C156.261 26.1975 156.338 26.2738 156.338 26.3682C156.338 26.4621 156.262 26.538 156.169 26.5381H155.662C154.915 26.5382 154.31 27.1436 154.31 27.8906C154.31 28.6376 154.915 29.2431 155.662 29.2432H156.169C156.262 29.2433 156.338 29.3189 156.338 29.4121V32.7998C156.338 33.2663 155.96 33.6443 155.493 33.6445H148.732C148.266 33.6445 147.887 33.2664 147.887 32.7998V29.4121C147.887 29.319 147.963 29.2434 148.056 29.2432H148.562C149.31 29.2432 149.915 28.6377 149.915 27.8906C149.915 27.1436 149.31 26.5381 148.562 26.5381H148.056C147.963 26.5379 147.887 26.462 147.887 26.3682C147.887 26.2736 147.964 26.1973 148.058 26.1973ZM152.112 29.584C151.619 29.584 151.146 29.7801 150.798 30.1289C150.449 30.4779 150.253 30.9513 150.253 31.4443C150.253 31.9373 150.449 32.4099 150.798 32.7588C151.146 33.1077 151.619 33.3047 152.112 33.3047C152.606 33.3047 153.079 33.1078 153.428 32.7588C153.776 32.41 153.972 31.9371 153.972 31.4443C153.972 30.9514 153.776 30.4778 153.428 30.1289C153.079 29.7799 152.606 29.584 152.112 29.584Z" fill="white" stroke="white" stroke-width="1.69014"/>
<path d="M2.47437 48V15.1437H16.2659V19.3623H8.47775V28.8135H14.6028V32.9915H8.47775V43.8625H16.347V48H2.47437ZM19.8247 48V15.1437H24.0027L31.9937 33.8839V15.1437H36.9425V48H32.9673L24.9357 28.3673V48H19.8247ZM50.163 48.4462C47.9996 48.4462 46.2824 47.9865 45.0114 47.067C43.7404 46.1476 42.821 44.8496 42.2531 43.173C41.7123 41.4693 41.4418 39.4682 41.4418 37.1696V26.1363C41.4418 23.7837 41.7123 21.7555 42.2531 20.0518C42.7939 18.3482 43.7404 17.0501 45.0925 16.1577C46.4717 15.2383 48.3647 14.7786 50.7714 14.7786C53.0159 14.7786 54.8007 15.1572 56.1258 15.9144C57.4508 16.6715 58.3973 17.7668 58.9652 19.2C59.5601 20.6062 59.8576 22.3234 59.8576 24.3515V26.0552H54.1382V24.1893C54.1382 23.1346 54.057 22.2287 53.8948 21.4715C53.7596 20.7144 53.4621 20.1465 53.0024 19.7679C52.5697 19.3623 51.8531 19.1594 50.8525 19.1594C49.7979 19.1594 49.0272 19.4163 48.5404 19.9301C48.0807 20.4439 47.7832 21.12 47.648 21.9583C47.5399 22.7966 47.4858 23.7161 47.4858 24.7166V38.4676C47.4858 39.6034 47.5804 40.5904 47.7697 41.4287C47.959 42.267 48.3106 42.9161 48.8244 43.3758C49.3382 43.8085 50.0683 44.0248 51.0148 44.0248C51.9883 44.0248 52.732 43.7814 53.2458 43.2946C53.7596 42.8079 54.1111 42.1318 54.3004 41.2665C54.5168 40.4011 54.6249 39.3735 54.6249 38.1837V35.1008H51.0959V31.3284H60.0199V48H56.1663L55.7201 44.7549C55.2875 45.8366 54.6249 46.729 53.7325 47.4321C52.8672 48.1082 51.6773 48.4462 50.163 48.4462ZM64.7493 48V15.1437H70.6716V48H64.7493ZM75.7578 48V15.1437H79.9358L87.9268 33.8839V15.1437H92.8756V48H88.9004L80.8688 28.3673V48H75.7578ZM97.8617 48V15.1437H111.653V19.3623H103.865V28.8135H109.99V32.9915H103.865V43.8625H111.734V48H97.8617ZM124.055 48.4462C121.648 48.4462 119.755 47.973 118.376 47.0265C117.024 46.08 116.077 44.7955 115.537 43.173C114.996 41.5234 114.725 39.6304 114.725 37.4941V25.7713C114.725 23.5268 114.996 21.5797 115.537 19.9301C116.077 18.2806 117.024 17.0096 118.376 16.1172C119.755 15.2248 121.648 14.7786 124.055 14.7786C126.326 14.7786 128.098 15.1707 129.369 15.9549C130.667 16.7121 131.586 17.8073 132.127 19.2406C132.668 20.6738 132.938 22.3369 132.938 24.2299V26.9882H127.178V24.1487C127.178 23.2293 127.124 22.391 127.016 21.6338C126.935 20.8766 126.678 20.2817 126.245 19.849C125.84 19.3893 125.123 19.1594 124.095 19.1594C123.068 19.1594 122.311 19.4028 121.824 19.8896C121.364 20.3493 121.067 20.9848 120.931 21.7961C120.796 22.5803 120.729 23.4727 120.729 24.4732V38.7515C120.729 39.9414 120.823 40.9285 121.013 41.7127C121.202 42.4699 121.54 43.0513 122.027 43.4569C122.54 43.8355 123.23 44.0248 124.095 44.0248C125.096 44.0248 125.799 43.7949 126.205 43.3352C126.637 42.8485 126.908 42.213 127.016 41.4287C127.124 40.6445 127.178 39.7656 127.178 38.7921V35.831H132.938V38.4676C132.938 40.4146 132.681 42.1454 132.168 43.6597C131.654 45.147 130.748 46.3234 129.45 47.1887C128.179 48.027 126.38 48.4462 124.055 48.4462Z" fill="white"/>
<path d="M171.488 48V15.1437H179.358C181.575 15.1437 183.441 15.4141 184.955 15.9549C186.497 16.4687 187.66 17.3611 188.444 18.6321C189.255 19.9031 189.661 21.6338 189.661 23.8242C189.661 25.1493 189.539 26.3392 189.296 27.3938C189.052 28.4484 188.633 29.3544 188.038 30.1115C187.47 30.8417 186.673 31.4096 185.645 31.8152L190.229 48H184.225L180.25 32.951H177.492V48H171.488ZM177.492 29.1786H179.358C180.52 29.1786 181.44 29.0163 182.116 28.6918C182.819 28.3403 183.319 27.7994 183.617 27.0693C183.914 26.3121 184.063 25.3521 184.063 24.1893C184.063 22.5397 183.752 21.3093 183.13 20.498C182.535 19.6597 181.386 19.2406 179.682 19.2406H177.492V29.1786ZM194.226 48V15.1437H208.018V19.3623H200.229V28.8135H206.354V32.9915H200.229V43.8625H208.099V48H194.226Z" fill="white"/>
<circle cx="152.113" cy="32.1123" r="14.0282" stroke="white" stroke-width="5.74648"/>
</svg>
