<svg width="34" height="34" viewBox="0 0 34 34" fill="none" xmlns="http://www.w3.org/2000/svg">
<path d="M16.9011 21.1387C16.9943 21.1387 17.0698 21.2145 17.0701 21.3076V23.6045C17.0701 24.5556 17.7013 25.2464 18.2234 25.6445C18.2873 25.6932 18.3492 25.7461 18.4089 25.8037C18.588 25.9765 18.824 26.1173 19.0984 26.1797V28.6162C18.8175 28.6756 18.5748 28.8172 18.3904 28.9912C18.1817 29.1881 17.9412 29.3419 17.6433 29.4434L17.6335 29.4463L17.6248 29.4492C16.8998 29.7142 16.0964 29.5583 15.5095 29.083L15.3953 28.9834L15.2996 28.9014C15.1342 28.7713 14.9323 28.6668 14.7039 28.6172V26.1797C14.9783 26.1173 15.2151 25.9765 15.3943 25.8037C15.4538 25.7463 15.5151 25.6931 15.5789 25.6445C16.101 25.2464 16.7322 24.5556 16.7322 23.6045V21.3076C16.7324 21.2145 16.808 21.1387 16.9011 21.1387ZM16.9011 25.54C16.4078 25.5401 15.9352 25.737 15.5867 26.0859C15.2382 26.4348 15.0418 26.9074 15.0417 27.4004C15.0417 27.8935 15.2381 28.3669 15.5867 28.7158C15.9352 29.0646 16.4079 29.2607 16.9011 29.2607C17.3945 29.2607 17.868 29.0648 18.2166 28.7158C18.565 28.3669 18.7605 27.8934 18.7605 27.4004C18.7604 26.9076 18.5648 26.4348 18.2166 26.0859C17.868 25.737 17.3945 25.54 16.9011 25.54ZM12.8464 10.9863H20.9568C21.0499 10.9865 21.1266 11.0628 21.1267 11.1572C21.1267 11.2511 21.0504 11.327 20.9578 11.3271H20.4509C19.7039 11.3272 19.0984 11.9327 19.0984 12.6797C19.0984 13.4267 19.7039 14.0321 20.4509 14.0322H20.9578C21.0509 14.0323 21.1266 14.108 21.1267 14.2012V17.5889C21.1266 18.0553 20.7484 18.4333 20.282 18.4336H13.5212C13.0546 18.4336 12.6757 18.0555 12.6755 17.5889V14.2012C12.6757 14.1081 12.7514 14.0324 12.8445 14.0322H13.3513C14.0984 14.0322 14.7039 13.4268 14.7039 12.6797C14.7039 11.9326 14.0984 11.3271 13.3513 11.3271H12.8445C12.752 11.3269 12.6755 11.2511 12.6755 11.1572C12.6756 11.0627 12.7531 10.9863 12.8464 10.9863ZM16.9011 14.373C16.4079 14.3731 15.9352 14.5691 15.5867 14.918C15.2381 15.2669 15.0417 15.7403 15.0417 16.2334C15.0418 16.7263 15.2382 17.199 15.5867 17.5479C15.9352 17.8968 16.4078 18.0937 16.9011 18.0938C17.3945 18.0938 17.868 17.8968 18.2166 17.5479C18.5648 17.199 18.7604 16.7262 18.7605 16.2334C18.7605 15.7404 18.565 15.2669 18.2166 14.918C17.868 14.569 17.3945 14.373 16.9011 14.373Z" fill="white" stroke="white" stroke-width="1.69014"/>
<circle cx="16.9014" cy="16.9014" r="14.0282" stroke="white" stroke-width="5.74648"/>
</svg>
